<?xml version="1.0" encoding="utf-8"?>
<!-- Generator: Adobe Illustrator 19.0.0, SVG Export Plug-In . SVG Version: 6.00 Build 0)  -->
<svg version="1.1" id="Layer_1" xmlns="http://www.w3.org/2000/svg" xmlns:xlink="http://www.w3.org/1999/xlink" x="0px" y="0px"
	 width="254px" height="254px" viewBox="0 0 254 254" style="enable-background:new 0 0 254 254;" xml:space="preserve">
<g>
	<g>
		<path style="fill: #05a9c5;" d="M119,39.3c11.5-19.6,27.2-32.6,49.3-37.6C206.4-7,244.8,18.1,252.7,57c7.8,38.3-18.1,76.4-56.4,83.2
			c-8,1.4-15.9,1.4-23.9,0.4c-1.6-0.2-3.3-1.3-3.4,1.7c-0.6,18.9-0.1,37.7,9.2,55c3.6,6.6,7.8,12.8,12.9,18.3
			c2.3,2.5,3.7,5.1,2.2,8.5c-1.5,3.4-4.4,4.3-7.8,4.3c-17.3,0-34.7,0.1-52-0.1c-3.3,0-4.9,0.8-6.1,4.1
			c-4.8,13.3-16.9,21.6-30.6,21.5c-13.6,0-25.9-8.6-30.4-21.8c-1.2-3.3-2.8-3.8-5.8-3.8c-16.8,0.1-33.7,0-50.5,0
			c-3.7,0-7.4,0-9.4-4.1c-2-4.2,0.5-6.9,3-9.7c13.9-15.9,21.1-34.5,21.2-55.7c0.1-14.5-0.1-29,0.1-43.5c0.3-31,18.7-57.1,47.8-67.6
			c3.6-1.3,4.3-2.5,3.1-6.3c-2.8-8.8-0.3-16.5,6.5-22.6c6.9-6.1,15-7.2,23.3-3.6c8.3,3.7,12.7,10.5,13.2,19.6
			C119,36.5,119,37.9,119,39.3z M22.3,213.7c1,0.3,1.4,0.5,1.7,0.5c48,0,96,0,144,0.1c4.1,0,2.9-1.6,1.6-3.8
			c-7.8-12.5-12.5-26.1-14.1-40.7c-1.1-10.1-0.4-20.3-0.5-30.5c0-2.5-0.5-4.1-3-5.5c-27.6-15-40.8-38.2-38.9-69.7
			c0.2-3.3-0.5-4.6-3.9-5.4C80.9,52.5,51.3,69.4,42,97.1c-3.3,9.9-3,20-3,30.2c0,13.3,0.4,26.7-0.4,40
			C37.6,183.9,31.9,199.3,22.3,213.7z M126.8,70.5c-0.1,31.2,24.8,56.6,55.7,56.8c31.7,0.2,57.3-24.9,57.4-56.2
			c0.1-31.1-25.3-56.8-56.4-56.9C152.3,14,126.9,39.2,126.8,70.5z M113.1,229c-10.8,0-21.6,0-32.6,0c3.3,7.1,9.7,11.2,16.8,10.9
			C104.6,239.7,110.8,235.4,113.1,229z M96.7,43.4c4.3,0.1,8-3.3,8.2-7.6c0.2-4.3-3.3-7.9-7.7-8c-4.4-0.1-8,3.2-8.2,7.6
			C88.8,39.6,92.3,43.3,96.7,43.4z"/>
		<path style="fill: #05a9c5;" d="M176.1,52.3c0-5.8-0.1-11.6,0-17.4c0.1-5.2,3-8.3,7.3-8.2c4.2,0.1,6.7,3,6.7,8.2c0.1,8.3,0.1,16.6,0,24.9
			c-0.1,3,0.9,4.2,4,4.1c4-0.2,8-0.1,12,0c4.3,0.1,7,2.4,7.1,6.7c0.2,4.4-2.5,7.1-6.6,7.2c-7.8,0.3-15.6,0.3-23.4,0
			c-4.6-0.2-6.9-3.1-7-8C176,63.9,176.1,58.1,176.1,52.3z"/>
	</g>
</g>
</svg>
